<svg xmlns="http://www.w3.org/2000/svg" enable-background="new 0 0 3000 2000" viewBox="700 200 1800 1750" width="550" height="550">





	<path fill="#edb6d3" d="M1983.012,976.647c0-323.133-248.018-585.084-553.964-585.084c-146.373,0-279.394,60.063-378.432,157.995     c0-0.003-0.033-0.069-0.033-0.069s-10.59,9.625-26.515,28.142c-83.362,94.338-137.445,217.785-147.216,354.363     c-0.144,1.621-0.346,3.193-0.477,4.823c-10.94,135.06-161.255,207.911-116.599,256.413c17.333,22.389,53.166,25.21,68.591,37.909     c41.747,44.114-54.049,111.611,52.821,121.163c-20.934,2.831-61.387,25.533-37.41,56.177     c61.033,42.428-36.196,159.055,107.408,175.829c269.843-43.833,378.322-1.821,347.628,264.752h504.504     c-33.739-10.812-62.912-154.89-74.111-265.261c-6.299-62.077,17.221-123.486,63.177-165.692     C1909.147,1310.871,1983.012,1152.911,1983.012,976.647z" class="colorEDB6D3 svgShape"/>
	<path fill="#ff87b6" d="M1513.787,863.503c0,29.163-23.648,52.812-52.812,52.812c-1.76,0-3.498-0.096-5.216-0.267v-105.09     c1.718-0.16,3.456-0.256,5.216-0.256C1490.139,810.702,1513.787,834.339,1513.787,863.503z" class="colorFF87B6 svgShape"/>
	<path fill="#ffffff" d="M1513.784,863.512c0,29.162-23.645,52.806-52.807,52.806c-1.774,0-3.503-0.109-5.21-0.262v63.249     c-4.401-1.708-8.845-3.503-13.311-5.407c-51.273-21.696-100.731-34.723-146.312-44.596     c-145.458-31.57-251.531-31.154-251.531-178.648c0-0.963,0.023-1.905,0.045-2.868c66.511-0.066,155.112-0.088,251.485-0.066     c51.712,0.022,105.656,0.044,159.623,0.066v63.184c1.707-0.175,3.437-0.263,5.21-0.263     C1490.139,810.705,1513.784,834.35,1513.784,863.512z" class="colorFFF svgShape"/>
	<path fill="#384e97" d="M1296.145,747.719v181.582c-145.458-31.57-251.531-31.154-251.531-178.648     c0-0.963,0.023-1.905,0.045-2.868C1111.17,747.719,1199.771,747.697,1296.145,747.719z" class="color384E97 svgShape"/>
	<path fill="#d86ba5" d="M1408.174,640.65c0,26.273,21.302,47.574,47.585,47.574v59.553     c-54.124-0.021-108.205-0.043-160.024-0.053c-2.049,27.286-24.823,48.79-52.642,48.79c-27.809,0-50.583-21.515-52.631-48.801     c-54.817,0-104.557,0.032-145.806,0.075c2.273-136.963,167.503-242.897,370.889-247.643c13.6-0.32,27.008-0.192,40.214,0.363     v92.557C1429.476,593.064,1408.174,614.367,1408.174,640.65z" class="colorD86BA5 svgShape"/>
	<path fill="#db516d" d="M1834.574,764.96c0-5.43-0.277-10.839-0.84-16.237c-28.012-0.021-58.85-0.054-91.718-0.085     c-6.186,0-12.433,0-18.756-0.01c-6.833,0-13.74-0.011-20.711-0.011v-0.234c0-29.053-23.548-52.601-52.602-52.601     c-29.052,0-52.601,23.548-52.601,52.601v0.149c-23.103-0.011-46.576-0.032-70.242-0.043c-11.826-0.011-23.696-0.021-35.599-0.021     c-11.901-0.01-23.825-0.01-35.747-0.021v62.941c1.711-0.16,3.443-0.255,5.196-0.255c29.054,0,52.613,23.548,52.613,52.602     c0,29.053-23.559,52.612-52.613,52.612c-1.753,0-3.485-0.096-5.196-0.266v63.016c51.429,20.09,97.878,28.321,139.217,27.593     c28.941,55.286,75.942,121.195,122.596,107.983c24.878-7.045-44.785-48.21-0.428-141.966     C1794.373,926.043,1834.574,839.521,1834.574,764.96z" class="colorDB516D svgShape"/>
	<path fill="#d492b5" d="M908.953 1574.129c11.032 4.646 24.856 8.149 42.234 10.179 32.223-5.234 62.118-9.227 89.777-11.777C1004.154 1567.573 960.217 1568.567 908.953 1574.129zM1792.384 1418.108c116.763-107.237 190.628-265.198 190.628-441.461 0-323.133-248.018-585.084-553.965-585.084-19.567 0-38.887 1.107-57.928 3.201 204.122 22.484 375.282 162.023 452.22 353.951 3.506.003 6.973.005 10.395.008.563 5.398.84 10.807.84 16.237 0 4.29-.15 8.623-.415 12.981 21.209 62.041 32.792 128.941 32.792 198.706 0 176.264-73.865 334.224-190.628 441.461-45.955 42.206-69.476 103.615-63.178 165.692 11.2 110.371 40.372 254.449 74.112 265.26h116.061c-33.74-10.811-62.912-154.89-74.111-265.26C1722.908 1521.723 1746.428 1460.314 1792.384 1418.108z" class="colorD492B5 svgShape"/>



	<g fill="#000000" class="color000 svgShape">
		<path fill="#f9cbcb" d="M1921.672,573.035c0,0,14.691,82.719,36.144,88.429c9.712,2.584,22.187,0.416,34.097-3.616      c20.141-6.816,38.655-18.936,39.295-22.244l20.433-62.026c-11.761,5.069-78.766,43.265-84.241,46.924      c-8.865-13.308-28.091-47.935-28.721-50.477c0,0,4.148-18.661,0.484-23.913c-3.257-4.649-4.455,10.596-5.829,8.748      c-1.498-2.034-10.374-23.613-16.276-17.309C1903.948,551.602,1921.672,573.035,1921.672,573.035z" class="colorF9CBCB svgShape"/>
		<path fill="#9dc0f0" d="M1978.708,611.718c1.536,16.187,10.921,38.069,11.9,48.21c20.142-6.815,44.424-9.097,45.064-12.404      l15.97-73.945C2039.88,578.647,2002.086,597.847,1978.708,611.718z" class="color9DC0F0 svgShape"/>
		<path fill="#ffd8d9" d="M2057.036,926.277c4.232,15.759,6.846,29.902,8.232,43.052c3.565,33.593,2.559,85.32-3.586,118.015      l-17.225-1.691c0,0-24.335-88.366-35.834-133.556c-2.956-11.465-5.25-21.708-6.443-29.434      c-6.948-44.096,18.787-169.023,20.439-177.11l0.069-0.311l0.022-0.115l69.311-9.682      C2128.845,823.067,2085.163,845.106,2057.036,926.277z" class="colorFFD8D9 svgShape"/>
		<path fill="#353d78" d="M2089.716,854.279c-9.781,20.123-22.283,42.016-32.68,71.997c3.836,14.273,8.202,29.112,13.249,46.412      l-59.947,8.374c-2.954-11.465-6.965-50.673-8.158-58.4c-6.948-44.096,18.787-169.023,20.439-177.11l0.069-0.311l0.022-0.115      l69.311-9.682C2115.267,790.72,2106.449,819.88,2089.716,854.279z" class="color353D78 svgShape"/>
		<path fill="#30386e" d="M2089.716,854.279c-9.781,20.123-22.283,42.016-32.68,71.997c3.836,14.273,8.202,29.112,13.249,46.412      l-11.061,1.545c-1.897-17.115-17.017-45.253-22.094-44.349c4.498-1.113,45.698-81.793,48.833-109.734L2089.716,854.279z" class="color30386E svgShape"/>
		<path fill="#ffd8d9" d="M2129.6,1107.516l42.229-48.95c0,0-31.009-48.431-56.099-80.63      c-5.956-7.707-11.577-14.443-16.379-19.433c-34.36-35.588-52.303-214.942-52.303-214.942h56.807      c44.534,40.939,33.319,97.306,34.633,152.992c0.454,19.301,6.662,37.91,17.086,54.162c2.099,3.273,4.077,6.589,5.943,9.986      c12.993,23.713,20.698,51.52,27.808,97.196l8.794,29.646L2129.6,1107.516z" class="colorFFD8D9 svgShape"/>
		<path fill="#3f4883" d="M2164.384,959.732l-16.415,7.519l-33.356,15.262c-5.956-7.704-10.46-19.021-15.261-24.01      c-34.36-35.588-56.546-215.649-56.546-215.649l58.63,0.67l2.42,0.037c43.045,39.569,34.007,93.552,34.541,147.401      c0.216,21.974,7.321,43.425,20.724,60.84C2161.086,954.357,2162.877,956.98,2164.384,959.732z" class="color3F4883 svgShape"/>
		<path fill="#353d78" d="M2164.384,959.732l-16.415,7.519c-5.324-8.339-13.325-24.177-17.553-34.876      c-11.168-28.268-4.299-66.658-6.98-120.635c-1.975-39.77-35.589-59.096-35.589-59.096l13.588-9.12l2.42,0.037      c43.045,39.569,34.007,93.552,34.541,147.401c0.216,21.974,7.321,43.425,20.724,60.84      C2161.086,954.357,2162.877,956.98,2164.384,959.732z" class="color353D78 svgShape"/>
		<path fill="#5c96e6" d="M2132.706,627.789c-0.484,35.812-9.307,97.904-12.656,120.24c-0.484,3.238-2.271,6.03-4.802,7.78      c-1.377,0.967-3.016,1.638-4.765,1.898c-16.043,2.383-31.754,3.686-47.053,3.648c-13.773,0-27.212-1.041-40.278-3.312      c-5.101-0.894-9.009-4.989-9.568-10.126c-1.824-16.9,3.478-53.977,2.621-90.05c-0.558-22.819,6.602-81.228,49.214-90.418      l24.962-0.226c27.994,7.26,39.72,28.664,41.655,43.628C2132.631,615.282,2132.817,621.089,2132.706,627.789z" class="color5C96E6 svgShape"/>
		<path fill="#353d78" d="M2042.434 1080.723c-26.51 10.178-55.926 9.13-57.76 33.055l83.41-2.911c.981-10.141-.705-20.188-5.057-30.144H2042.434zM2171.83 1058.567c-21.219 18.87-52.965 32.175-46.245 55.21l77.028-25.75c-2.657-9.835-6.221-25.626-13.803-33.41L2171.83 1058.567z" class="color353D78 svgShape"/>
		<path fill="#3f4883" d="M2073.198,545.433c8.127,2.513,11.41,6.571,21.804,1.875c15.815-7.145,29.165-34.518,8.163-46.898       c-1.453-4.334-2.915-6.021-8.45-7.223c-5.533-1.201-11.207,1.208-18.835,1.077c-7.629-0.131-18.42-7.985-25.071,3.109       c-6.651,11.092,9.841,19.719,18.104,25.182C2077.18,528.017,2074.498,537.441,2073.198,545.433z" class="color3F4883 svgShape"/>
		<path fill="#f9cbcb" d="M2090.734,567.289c-9.083,9.083-17.65,10.823-25.316,0.161l2.158-17.521l0.901-7.377h20.099       l0.386,4.574L2090.734,567.289z" class="colorF9CBCB svgShape"/>
		<path fill="#f0b4b4" d="M2089.249,550.385c-4.967,5.977-18.653,7.707-22.364,5.145l1.592-12.978l20.213-8.483L2089.249,550.385       z" class="colorF0B4B4 svgShape"/>
		<path fill="#f9cbcb" d="M2058.178,507.421c-3.699,10.426-7.323,33.475,1.523,42.047c5.601,5.425,25.925,3.327,30.074-11.595       c4.902-3.55,8.5-12.204,3.983-16.132c-3.22-2.798-7.333,4.597-12.949,3.373c-2.131-0.464,4.414-14.702-2.236-17.169       C2071.921,505.48,2064.883,510.825,2058.178,507.421z" class="colorF9CBCB svgShape"/>
		<path fill="#384e97" d="M2001.839,731.712c-26.814-8.465-56.33-17.793-87.79-27.732c-5.922-1.865-11.904-3.748-17.955-5.665     c-6.542-2.06-13.152-4.152-19.827-6.254l0.07-0.224c8.759-27.817-6.689-57.463-34.506-66.221     c-27.817-8.759-57.463,6.689-66.222,34.506l-0.045,0.142c-22.116-6.975-44.585-14.072-67.241-21.216     c-11.321-3.576-22.682-7.164-34.078-10.752c-11.392-3.598-22.808-7.193-34.221-10.798l17.886-56.804     c-25.07-7.893-38.991-34.61-31.1-59.669c7.894-25.07,34.61-38.991,59.679-31.098l27.797-88.284     C1911.762,452.891,2027.052,609.266,2001.839,731.712z" class="color384E97 svgShape"/>
		<g fill="#000000" class="color000 svgShape">
			<path fill="#f9cbcb" d="M2098.734,656.854c0,0-22.32,26.881-42.582,41.667c-4.849,3.505-9.544,6.317-13.807,7.94       c-29.527,11.208-97.668,2.38-97.668,2.38c-21.466,10.951-48.591,4.458-53.946-3.629c-9.477-14.464,25.693-0.823,29.091-9.473       c0,0-16.174-8.805-11.638-15.23c4.504-6.464,32.7,10.758,32.7,10.758c28.501-11.734,57.199-18.202,84.336-20.05       c2.175-3.055,4.351-6.108,6.596-9.117c16.263-21.599,35.12-41.26,60.771-54.323       C2105.011,624.03,2104.646,640.433,2098.734,656.854z" class="colorF9CBCB svgShape"/>
			<path fill="#9dc0f0" d="M2062.477,699.233l-35.241-39.384c16.264-21.599,47.41-68.942,69.13-50.051       C2125.285,634.949,2082.74,684.447,2062.477,699.233z" class="color9DC0F0 svgShape"/>
		</g>
	</g>
	<path fill="#3f4883" d="M1149.626,1841.457l-9.027-53.549l-0.949-5.684l-8.458-50.162l-0.966-5.685l-9.615-56.969l-0.949-5.684    l-10.563-62.637h3.055v-8.892H860.733v8.892h2.468l-10.562,62.637l-0.95,5.684l-9.613,56.969l-0.967,5.685l-8.456,50.162    l-0.95,5.684l-9.044,53.549l-0.949,5.684h96.861l0.949-5.684l8.889-53.549l0.932-5.684l8.336-50.162l0.949-5.685l9.459-56.969    l0.949-5.684l10.407-62.637h53.419l10.408,62.637l0.949,5.684l9.459,56.969l0.949,5.685l8.319,50.162l0.949,5.684l8.889,53.549    l0.949,5.684h96.862L1149.626,1841.457z M914.29,1841.457h-86.402l9.027-53.549h86.264L914.29,1841.457z M924.128,1782.224    h-86.246l8.457-50.162h86.126L924.128,1782.224z M933.414,1726.376h-86.109l9.596-56.969h85.971L933.414,1726.376z     M943.822,1663.723h-85.954l10.564-62.637h85.797L943.822,1663.723z M1018.073,1601.086h85.798l10.563,62.637h-85.971    L1018.073,1601.086z M1029.429,1669.407h85.971l9.597,56.969h-86.109L1029.429,1669.407z M1039.838,1732.061h86.125l8.458,50.162    h-86.264L1039.838,1732.061z M1058.012,1841.457l-8.906-53.549h86.281l9.027,53.549H1058.012z" class="color3F4883 svgShape"/>
	<g fill="#000000" class="color000 svgShape">
		<path fill="#ffd8d9" d="M1018.949,1553.803c0.46,6.025-6.282,12.339-6.648,18.532c25.626,5.476,51.468,9.934,77.302,14.46     c-4.392-20.881-30.28-19.701-47.35-26.43c0-104.014,43.823-224.937,19.688-327.512c-8.065-0.181-8.645,2.232-18.117,1.843     c-9.472-0.389-25.68-1.516-36.557-2.191C1004.054,1327.437,1018.314,1545.474,1018.949,1553.803z" class="colorFFD8D9 svgShape"/>
		<path fill="#ffd8d9" d="M868.633,1457.869c-5.748-1.999-12.444,4.246-18.234,2.777c5.191,23.738,12.832,38.319,23.701,60.143     c6.636-13.549,4.482-26.909,6.978-41.386c124.141-6.758,181.5-131.881,163.462-244.7c-15.229-0.475-30.46-1.795-45.632-2.51     C958.635,1290.164,989.5,1431.452,868.633,1457.869z" class="colorFFD8D9 svgShape"/>
		<path fill="#3f4883" d="M1072.414 1567.521c6.343 3.087 27.087 7.524 22.019 19.522-5.069 11.999-66.776.115-77.634-6.198-10.857-6.312-.81-18.781 2.482-26.089 9.754 19.485 38.337 29.975 57.299 21.833C1083.711 1573.528 1073.651 1568.79 1072.414 1567.521zM878.325 1504.407c-.321 4.372 3.802 27.73-6.939 25.518-10.741-2.211-29.385-60.243-24.871-71.271 5.156-12.598 17.785-2.529 21.944-.844-15.407 10.734-7.31 43.84 4.77 51.993C877.431 1512.637 878.422 1506.411 878.325 1504.407zM922.979 1387.304c0 0 14.472 15.99 28.072 12.681 0 0 15.067 22.831 38.735 7.063 17.935 11.096 35.846 11.096 53.78 0 23.645 15.768 38.736-7.063 38.736-7.063 13.6 3.309 28.07-12.681 28.07-12.681-12.986-61.115-41.056-113.315-47.861-156.738l-65.141 2.155C977.238 1252.761 964.345 1336.4 922.979 1387.304zM1035.096 1072.211c5.081-10.797 6.529-28.782-10.77-34.998-12.583-4.521-22.896-5.293-34.341 3.341-11.445 8.634-15.882 27.611-13.455 41.21 2.908 16.297-16.362 30.436-8.842 43.66 10.102 17.764 64.241 2.465 81.616-.172C1037.916 1106.682 1023.337 1097.2 1035.096 1072.211z" class="color3F4883 svgShape"/>
		<path fill="#ffd8d9" d="M1041.079,1162.143c29.877-5.671,59.316-16.026,76.475-42.608c12.17-18.853,19.092-47.82,26.35-66.233     c4.303-10.919,2.589-9.394,5.897-18.428c9.768-3.428,31.705-16.879,18.622-27.294c-17.933-14.274-30.326,7.137-35.653,18.123     c-5.326,10.986-3.8,7.359-9.453,15.544c-10.976,15.893-19.54,35.51-35.363,49.46c-13.776,12.145-38.16,16.211-55.584,22.412     C1034.92,1129.421,1038.283,1145.71,1041.079,1162.143z" class="colorFFD8D9 svgShape"/>
		<path fill="#c2397f" d="M1041.058,1162.184c30.181-6.258,58.939-15.301,76.591-42.829c12.52-19.525,17.869-45.463,26.784-67.079     c-6.995-3.933-13.887-7.575-20.61-11.276c-12.542,16.42-19.555,35.66-35.813,49.696c-14.155,12.22-37.981,16.179-55.658,22.426     C1034.929,1129.443,1038.298,1145.663,1041.058,1162.184z" class="colorC2397F svgShape"/>
		<path fill="#e14294" d="M1024.778,1109.531c52.446,16.51,29.627,92.608,38.828,122.979c-14.398,13.283-46.043,0.767-66.235,0.211     c5.086-44.164-33.125-89.004,8.915-123.01C1012.447,1109.56,1018.899,1107.681,1024.778,1109.531z" class="colorE14294 svgShape"/>
		<path fill="#ffd8d9" d="M1006.27,1109.834c6.065,3.437,22.07,15.001,18.403-0.491c-0.185-0.782-1.038-3.423-1.917-5.115     c-1.941-3.735-2.781-9.984-5.232-13.718c-2.451-3.733-8.622-5.141-11.973-7.939c0.037,5.266,0.314,13.254,0.428,17.803     C1006.093,1104.924,1006.155,1105.937,1006.27,1109.834z" class="colorFFD8D9 svgShape"/>
		<path fill="#f0b4b4" d="M1005.992,1100.744c1.399,0.791,3.296,1.7,4.739,2.138c4.183,1.268,7.807,1.833,12.163,1.458     c-2.398-4.147-2.775-9.945-5.35-13.813c-2.576-3.868-8.565-5.023-12-8.019C1005.607,1088.654,1005.84,1094.643,1005.992,1100.744     z" class="colorF0B4B4 svgShape"/>
		<path fill="#ffd8d9" d="M1032.087,1097.469c8.91-3.988,6.71-33.565-0.691-42.97c-7.556,9.634-21.018,9.427-31.867,6.001     c0.909,2.433,0.544,10.42,2.415,13.511c-1.757-2.902-10.664-4.218-9.574,1.499c0.994,5.213,6.939,8.113,11.522,9.676     C1007.945,1096.177,1020.221,1102.781,1032.087,1097.469z" class="colorFFD8D9 svgShape"/>
		<path fill="#3f4883" d="M1036.644,1067.904c0,0-1.043-8.17-6.578-11.872c0,0-2.426,9.123-10.013,12.083     c0,0-0.208-4.288-2.365-5.976c0,0-1.325,6.756-7.873,11.873c-6.117,4.78-0.416,15.826,1.793,18.269     c0,0-11.334-6.626-10.071-19.099c0,0-9.105-7.795-9.261-8.185c-0.156-0.39,0.624-9.276,0.624-9.276s21.278-5.535,21.319-5.769     c0.04-0.234,8.675-3.04,8.675-3.04l6.644,0.623l4.989,1.793L1036.644,1067.904z" class="color3F4883 svgShape"/>
		<path fill="#8a90ba" d="M1261.247,904.116l-9.413-3.724l-11.708-4.636l-7.61-3.021l-12.972-5.128l-11.38-4.496l-5.714-2.271      l-8.967-3.559l-5.784-2.271l-8.477-3.372l-7.891-3.114l9.32,22.339l15.759,37.676l-56.362,147.401      c-1.897,4.964-0.772,10.022,2.506,11.286c3.301,1.241,7.492-1.756,9.413-6.72l56.431-147.589l34.866-18.779l9.109-4.894      l8.148-4.402l1.101-0.585L1261.247,904.116z M1206.267,919.967l-9.694-23.205l-2.458-5.877l38.144,15.103l-4.473,2.412      L1206.267,919.967z" class="color8A90BA svgShape"/>
		<path fill="#ffffff" d="M1273.985,905.287c0,1.592-0.257,3.208-0.843,4.776c-0.024,0.047-0.024,0.094-0.047,0.141      c-2.717,7.282-10.842,11.005-18.147,8.289l-11.685-4.356l-15.477-5.737l-31.213-11.638l-15.922-5.901l-6.323-2.365      c-5.69-2.107-9.203-7.493-9.203-13.23c0-1.639,0.281-3.302,0.891-4.917c0.631-1.709,1.569-3.208,2.715-4.496      c3.747-4.191,9.835-5.877,15.432-3.794l80.619,29.996C1270.473,894.164,1273.985,899.549,1273.985,905.287z" class="colorFFF svgShape"/>
		<path fill="#ffd8d9" d="M1018.198,1183.573c29.406,9.234,56.934,19.526,87.572,4.518c24.428-11.967,35.748-51.184,42.2-74.67     c3.055-11.123,2.324-11.683,4.614-21.007c10.215-7.533,24.998-20.303,11.535-32.671c-16.977-15.596-26.63,14.013-28.643,23.702     c-3.268,15.726-30.41,60.638-39.062,62.968c-32.051,8.634-51.912-8.589-78.85-16.6     C1018.079,1147.426,1018.698,1165.412,1018.198,1183.573z" class="colorFFD8D9 svgShape"/>
		<path fill="#e14294" d="M1018.186,1183.607c29.581,8.756,56.719,20.111,87.636,4.342c24.651-12.573,40.001-46.586,47.331-72.566     c-6.55-6.87-17.854-11.851-25.031-17.605c-4.014,11.504-23.058,46.534-31.75,48.76c-31.903,8.172-51.944-8.492-78.804-16.743     C1018.065,1147.466,1018.717,1165.362,1018.186,1183.607z" class="colorE14294 svgShape"/>
		<path fill="#6177bf" d="M1273.985,905.287c0,1.592-0.257,3.208-0.843,4.776c-0.234-0.257-0.446-0.538-0.609-0.842     c-0.609-1.078-0.843-2.342-1.428-3.442c-1.662-3.185-6.323-4.285-9.25-2.178c-0.211,0.164-0.421,0.328-0.608,0.516     c-0.258,0.234-0.492,0.468-0.726,0.725c-0.82,0.937-1.522,1.991-2.366,2.927c-1.24,1.382-3.137,2.529-4.916,1.944     c-0.328-0.117-0.609-0.258-0.867-0.468c-1.265-0.937-1.803-2.811-1.662-4.449c0.14-1.522,0.702-2.927,1.124-4.402     c0.14-0.445,0.257-0.913,0.351-1.382c0.375-1.944,0.141-4.261-1.428-5.456c-1.242-2.154-4.426-2.364-6.627-1.218     c-1.569,0.797-2.81,2.084-4.004,3.419c-0.492,0.515-0.96,1.054-1.452,1.569c-1.709,1.803-4.964,5.386-6.392,3.348     c-1.546-2.201,0.164-5.222,0.234-7.938c0.023-0.656-0.047-1.288-0.305-1.897c-1.263-3.114-4.144-5.643-7.492-5.948     c-0.867-0.07-1.756,0-2.552,0.328c-1.148,0.468-1.968,1.335-2.623,2.388c-1.943,3.185-2.482,8.078-6.088,8.898     c-2.529,0.586-5.034-1.546-5.807-4.005c-0.773-2.482-0.281-5.151,0.235-7.68c0.116-0.562,0.21-1.147,0.281-1.709     c0.07-0.655,0.07-1.312-0.071-1.944c-0.257-1.194-1.171-2.341-2.388-2.482c-1.428-0.141-2.365,0.913-3.255,2.154     c-0.631,0.843-1.265,1.78-2.013,2.412c-2.482,2.06-7.025,0.094-7.188-3.114c-0.047-0.937,0.188-1.92,0.234-2.857     c0.047-0.703,0-1.382-0.375-1.99c-1.054-1.709-3.512-1.288-5.409-0.281c-0.281,0.141-0.538,0.304-0.796,0.468     c-1.921,1.288-4.45,2.81-6.345,1.475c-1.593-1.124-1.382-3.232-1.336-5.316c0.024-1.429-0.023-2.857-0.796-3.934     c-1.92-2.693-6.111-1.194-9.366-1.779c-0.116-0.024-0.21-0.047-0.328-0.07c3.747-4.191,9.835-5.877,15.432-3.794l80.619,29.996     C1270.473,894.164,1273.985,899.549,1273.985,905.287z" class="color6177BF svgShape"/>
	</g>
	<path fill="#3f4883" d="M1814.939,1845.378h129.377l11.3-78.102l1.261-8.682l11.793-81.64l1.261-8.682l11.811-81.662l1.261-8.683    l11.811-81.662l1.261-8.682l11.81-81.64l1.245-8.683l11.061-76.473l1.261-8.683l12.562-86.849l1.26-8.683l13.811-95.489h70.924    l13.811,95.489l1.262,8.683l12.561,86.849l1.26,8.683l11.062,76.473l1.244,8.683l11.811,81.64l1.26,8.682l11.811,81.662    l1.261,8.683l11.811,81.662l1.261,8.682l11.793,81.64l1.261,8.682l11.3,78.102h129.376l-11.471-78.102l-1.278-8.682l-11.982-81.64    l-1.278-8.682l-12-81.662l-1.277-8.683l-11.983-81.662l-1.278-8.682l-11.998-81.64l-1.262-8.683l-11.232-76.473l-1.277-8.683    l-12.766-86.849l-1.261-8.683l-14.029-95.489h4.066v-13.566h-333.836v13.566h3.291l-14.029,95.489l-1.26,8.683l-12.766,86.849    l-1.278,8.683l-11.232,76.473l-1.261,8.683l-11.998,81.64l-1.278,8.682l-11.982,81.662l-1.278,8.683l-11.999,81.662l-1.279,8.682    l-11.981,81.64l-1.279,8.682L1814.939,1845.378z M2220.419,1767.276h115.349l10.192,69.419h-115.502L2220.419,1767.276z     M2207.346,1676.954h115.145l11.999,81.64h-115.333L2207.346,1676.954z M2194.274,1586.61h114.957l12,81.662h-115.146    L2194.274,1586.61z M2181.201,1496.265h114.753l11.999,81.662H2193.03L2181.201,1496.265z M2168.146,1405.943h114.549    l11.981,81.64h-114.719L2168.146,1405.943z M2155.823,1320.787h114.362l11.231,76.473h-114.531L2155.823,1320.787z     M2142.002,1225.255h114.157l12.747,86.849h-114.344L2142.002,1225.255z M2126.936,1121.082h113.917l14.027,95.489h-114.139    L2126.936,1121.082z M2028.357,1216.571h-114.139l14.027-95.489h113.917L2028.357,1216.571z M2014.534,1312.104h-114.343    l12.749-86.849h114.156L2014.534,1312.104z M2002.212,1397.26h-114.531l11.231-76.473h114.362L2002.212,1397.26z     M1989.14,1487.583h-114.719l11.982-81.64h114.548L1989.14,1487.583z M1976.067,1577.927h-114.922l11.999-81.662h114.753    L1976.067,1577.927z M1963.012,1668.272h-115.145l11.999-81.662h114.957L1963.012,1668.272z M1949.94,1758.594h-115.331    l11.998-81.64h115.145L1949.94,1758.594z M1938.641,1836.695h-115.503l10.192-69.419h115.35L1938.641,1836.695z" class="color3F4883 svgShape"/>








</svg>